REM DIRINDEX 1\2,1\3
REM DIRNAME folder01,folder02,folder03
TITLE ""
FILE "DISC1Track31.mp3" MP3
  TRACK 01 AUDIO
    TITLE "0:"
    INDEX 01 00:00:00
  TRACK 02 AUDIO
    TITLE "3:cjc133_1382"
    INDEX 01 00:00:15
  TRACK 03 AUDIO
    TITLE "0:"
    INDEX 01 00:01:56
  TRACK 04 AUDIO
    TITLE "2:cjc133_1383"
    INDEX 01 00:02:30
  TRACK 05 AUDIO
    TITLE "2:cjc133_1384"
    INDEX 01 00:04:64
  TRACK 06 AUDIO
    TITLE "2:cjc133_1385"
    INDEX 01 00:07:33
  TRACK 07 AUDIO
    TITLE "0:"
    INDEX 01 00:09:08
  TRACK 08 AUDIO
    TITLE "2:cjc133_1386"
    INDEX 01 00:09:61
  TRACK 09 AUDIO
    TITLE "2:cjc133_1387"
    INDEX 01 00:11:05
  TRACK 10 AUDIO
    TITLE "2:cjc133_1388"
    INDEX 01 00:13:55
  TRACK 11 AUDIO
    TITLE "0:"
    INDEX 01 00:15:28
  TRACK 12 AUDIO
    TITLE "2:cjc133_1389"
    INDEX 01 00:16:08
  TRACK 13 AUDIO
    TITLE "2:cjc133_1390"
    INDEX 01 00:17:37
  TRACK 14 AUDIO
    TITLE "2:cjc133_1391"
    INDEX 01 00:20:04
  TRACK 15 AUDIO
    TITLE "0:"
    INDEX 01 00:21:53
  TRACK 16 AUDIO
    TITLE "2:cjc133_1392"
    INDEX 01 00:22:23
  TRACK 17 AUDIO
    TITLE "2:cjc133_1393"
    INDEX 01 00:24:74
  TRACK 18 AUDIO
    TITLE "2:cjc133_1394"
    INDEX 01 00:28:02
  TRACK 19 AUDIO
    TITLE "0:"
    INDEX 01 00:30:08
  TRACK 20 AUDIO
    TITLE "2:cjc133_1395"
    INDEX 01 00:30:61
  TRACK 21 AUDIO
    TITLE "2:cjc133_1396"
    INDEX 01 00:32:19
  TRACK 22 AUDIO
    TITLE "2:cjc133_1397"
    INDEX 01 00:35:17
  TRACK 23 AUDIO
    TITLE "0:"
    INDEX 01 00:37:16
  TRACK 24 AUDIO
    TITLE "2:cjc133_1398"
    INDEX 01 00:37:71
  TRACK 25 AUDIO
    TITLE "2:cjc133_1399"
    INDEX 01 00:39:52
  TRACK 26 AUDIO
    TITLE "2:cjc133_1400"
    INDEX 01 00:42:47
  TRACK 27 AUDIO
    TITLE "0:"
    INDEX 01 00:44:40
  TRACK 28 AUDIO
    TITLE "2:cjc133_1401"
    INDEX 01 00:45:22
  TRACK 29 AUDIO
    TITLE "2:cjc133_1402"
    INDEX 01 00:46:70
  TRACK 30 AUDIO
    TITLE "2:cjc133_1403"
    INDEX 01 00:49:57
  TRACK 31 AUDIO
    TITLE "0:"
    INDEX 01 00:51:46
  TRACK 32 AUDIO
    TITLE "2:cjc133_1404"
    INDEX 01 00:52:24
  TRACK 33 AUDIO
    TITLE "2:cjc133_1405"
    INDEX 01 00:55:16
  TRACK 34 AUDIO
    TITLE "2:cjc133_1406"
    INDEX 01 00:58:11
  TRACK 35 AUDIO
    TITLE "0:"
    INDEX 01 01:00:10
  TRACK 36 AUDIO
    TITLE "2:cjc133_1407"
    INDEX 01 01:00:59
  TRACK 37 AUDIO
    TITLE "2:cjc133_1408"
    INDEX 01 01:02:16
  TRACK 38 AUDIO
    TITLE "2:cjc133_1409"
    INDEX 01 01:05:05
  TRACK 39 AUDIO
    TITLE "0:"
    INDEX 01 01:06:67
  TRACK 40 AUDIO
    TITLE "2:cjc133_1410"
    INDEX 01 01:07:47
  TRACK 41 AUDIO
    TITLE "2:cjc133_1411"
    INDEX 01 01:09:40
  TRACK 42 AUDIO
    TITLE "2:cjc133_1412"
    INDEX 01 01:12:17
  TRACK 43 AUDIO
    TITLE "0:"
    INDEX 01 01:13:73
  TRACK 44 AUDIO
    TITLE "2:cjc133_1413"
    INDEX 01 01:14:49
  TRACK 45 AUDIO
    TITLE "2:cjc133_1414"
    INDEX 01 01:15:52
  TRACK 46 AUDIO
    TITLE "2:cjc133_1415"
    INDEX 01 01:18:00
  TRACK 47 AUDIO
    TITLE "0:"
    INDEX 01 01:19:23
  TRACK 48 AUDIO
    TITLE "2:cjc133_1416"
    INDEX 01 01:19:74
  TRACK 49 AUDIO
    TITLE "2:cjc133_1417"
    INDEX 01 01:21:55
  TRACK 50 AUDIO
    TITLE "2:cjc133_1418"
    INDEX 01 01:24:39
  TRACK 51 AUDIO
    TITLE "0:"
    INDEX 01 01:26:29
  TRACK 52 AUDIO
    TITLE "2:cjc133_1419"
    INDEX 01 01:27:04
  TRACK 53 AUDIO
    TITLE "2:cjc133_1420"
    INDEX 01 01:28:65
  TRACK 54 AUDIO
    TITLE "2:cjc133_1421"
    INDEX 01 01:31:41
  TRACK 55 AUDIO
    TITLE "0:"
    INDEX 01 01:33:31
  TRACK 56 AUDIO
    TITLE "2:cjc133_1422"
    INDEX 01 01:34:03
  TRACK 57 AUDIO
    TITLE "2:cjc133_1423"
    INDEX 01 01:35:37
  TRACK 58 AUDIO
    TITLE "2:cjc133_1424"
    INDEX 01 01:37:71
  TRACK 59 AUDIO
    TITLE "0:"
    INDEX 01 01:39:53
  TRACK 60 AUDIO
    TITLE "2:cjc133_1425"
    INDEX 01 01:40:31
  TRACK 61 AUDIO
    TITLE "2:cjc133_1426"
    INDEX 01 01:42:47
  TRACK 62 AUDIO
    TITLE "2:cjc133_1427"
    INDEX 01 01:45:44
  TRACK 63 AUDIO
    TITLE "0:"
    INDEX 01 01:47:50
